<svg width="160" height="160" viewBox="0 0 160 160" fill="none" xmlns="http://www.w3.org/2000/svg">
  <defs>
    <linearGradient id="ring" x1="28" y1="36" x2="132" y2="124" gradientUnits="userSpaceOnUse">
      <stop stop-color="#7C3AED"/>
      <stop offset="0.5" stop-color="#06B6D4"/>
      <stop offset="1" stop-color="#EC4899"/>
    </linearGradient>
    <linearGradient id="water" x1="33" y1="111" x2="127" y2="111" gradientUnits="userSpaceOnUse">
      <stop stop-color="#67E8F9" stop-opacity="0.95"/>
      <stop offset="1" stop-color="#22D3EE" stop-opacity="0.35"/>
    </linearGradient>
  </defs>
  <circle cx="80" cy="78" r="38" fill="url(#ring)"/>
  <circle cx="80" cy="78" r="19" fill="#050508"/>
  <path d="M41 112C49 105 57 105 65 112C73 119 81 119 89 112C97 105 105 105 113 112C118 116 122 116 127 112" stroke="url(#water)" stroke-width="10" stroke-linecap="round"/>
  <path d="M33 126C41 119 49 119 57 126C65 133 73 133 81 126C89 119 97 119 105 126C113 133 121 133 127 126" stroke="#164E63" stroke-opacity="0.85" stroke-width="8" stroke-linecap="round"/>
</svg>
